<svg id="visual" viewBox="0 0 900 600" width="900" height="600" xmlns="http://www.w3.org/2000/svg" xmlns:xlink="http://www.w3.org/1999/xlink" version="1.1"><g stroke-width="1" stroke-linejoin="bevel"><path d="M483.6 333.3L417.4 405L481.6 398Z" fill="#246688" stroke="#246688"></path><path d="M483.6 333.3L405.4 317.3L417.4 405Z" fill="#081a28" stroke="#081a28"></path><path d="M405.4 317.3L365.2 335.3L417.4 405Z" fill="#19435d" stroke="#19435d"></path><path d="M417.4 405L486.6 450.7L481.6 398Z" fill="#246688" stroke="#246688"></path><path d="M481.6 398L551.8 415L483.6 333.3Z" fill="#15384f" stroke="#15384f"></path><path d="M483.6 333.3L431.4 255.7L405.4 317.3Z" fill="#1d4e6b" stroke="#1d4e6b"></path><path d="M405.4 317.3L366.2 247.7L365.2 335.3Z" fill="#205a7a" stroke="#205a7a"></path><path d="M483.6 333.3L479.6 258.7L431.4 255.7Z" fill="#1d4e6b" stroke="#1d4e6b"></path><path d="M365.2 335.3L334.2 402L417.4 405Z" fill="#1d4e6b" stroke="#1d4e6b"></path><path d="M417.4 405L421.4 482.7L486.6 450.7Z" fill="#0c2435" stroke="#0c2435"></path><path d="M486.6 450.7L551.8 415L481.6 398Z" fill="#19435d" stroke="#19435d"></path><path d="M483.6 333.3L547.8 262.7L479.6 258.7Z" fill="#19435d" stroke="#19435d"></path><path d="M367.2 465.7L421.4 482.7L417.4 405Z" fill="#15384f" stroke="#15384f"></path><path d="M551.8 415L566.8 325.3L483.6 333.3Z" fill="#277297" stroke="#277297"></path><path d="M334.2 402L367.2 465.7L417.4 405Z" fill="#246688" stroke="#246688"></path><path d="M418.4 199L366.2 247.7L431.4 255.7Z" fill="#297ea6" stroke="#297ea6"></path><path d="M431.4 255.7L366.2 247.7L405.4 317.3Z" fill="#081a28" stroke="#081a28"></path><path d="M262.9 323.3L268.9 419L334.2 402Z" fill="#277297" stroke="#277297"></path><path d="M566.8 325.3L547.8 262.7L483.6 333.3Z" fill="#15384f" stroke="#15384f"></path><path d="M479.6 258.7L418.4 199L431.4 255.7Z" fill="#081a28" stroke="#081a28"></path><path d="M492.6 526.3L549.8 486.7L486.6 450.7Z" fill="#0c2435" stroke="#0c2435"></path><path d="M486.6 450.7L549.8 486.7L551.8 415Z" fill="#112e42" stroke="#112e42"></path><path d="M619.1 411L614.1 323.3L566.8 325.3Z" fill="#112e42" stroke="#112e42"></path><path d="M497.6 196L418.4 199L479.6 258.7Z" fill="#00101c" stroke="#00101c"></path><path d="M412.4 545.3L492.6 526.3L421.4 482.7Z" fill="#00101c" stroke="#00101c"></path><path d="M421.4 482.7L492.6 526.3L486.6 450.7Z" fill="#112e42" stroke="#112e42"></path><path d="M619.1 411L566.8 325.3L551.8 415Z" fill="#112e42" stroke="#112e42"></path><path d="M566.8 325.3L628.1 284.7L547.8 262.7Z" fill="#081a28" stroke="#081a28"></path><path d="M545.8 184L497.6 196L547.8 262.7Z" fill="#081a28" stroke="#081a28"></path><path d="M547.8 262.7L497.6 196L479.6 258.7Z" fill="#277297" stroke="#277297"></path><path d="M549.8 486.7L619.1 411L551.8 415Z" fill="#1d4e6b" stroke="#1d4e6b"></path><path d="M418.4 199L358.2 207L366.2 247.7Z" fill="#297ea6" stroke="#297ea6"></path><path d="M268.9 419L286.9 455.7L334.2 402Z" fill="#1d4e6b" stroke="#1d4e6b"></path><path d="M334.2 402L286.9 455.7L367.2 465.7Z" fill="#081a28" stroke="#081a28"></path><path d="M367.2 465.7L412.4 545.3L421.4 482.7Z" fill="#00101c" stroke="#00101c"></path><path d="M334.2 402L365.2 335.3L262.9 323.3Z" fill="#00101c" stroke="#00101c"></path><path d="M331.2 535.3L412.4 545.3L367.2 465.7Z" fill="#277297" stroke="#277297"></path><path d="M262.9 323.3L365.2 335.3L285.9 244.7Z" fill="#112e42" stroke="#112e42"></path><path d="M285.9 244.7L365.2 335.3L366.2 247.7Z" fill="#00101c" stroke="#00101c"></path><path d="M670.3 313.3L628.1 284.7L614.1 323.3Z" fill="#00101c" stroke="#00101c"></path><path d="M614.1 323.3L628.1 284.7L566.8 325.3Z" fill="#297ea6" stroke="#297ea6"></path><path d="M286.9 221L285.9 244.7L366.2 247.7Z" fill="#081a28" stroke="#081a28"></path><path d="M286.9 455.7L331.2 535.3L367.2 465.7Z" fill="#15384f" stroke="#15384f"></path><path d="M605.1 197L545.8 184L547.8 262.7Z" fill="#246688" stroke="#246688"></path><path d="M497.6 196L431.4 148.3L418.4 199Z" fill="#081a28" stroke="#081a28"></path><path d="M500.6 600L531.8 552.3L492.6 526.3Z" fill="#277297" stroke="#277297"></path><path d="M492.6 526.3L531.8 552.3L549.8 486.7Z" fill="#1d4e6b" stroke="#1d4e6b"></path><path d="M549.8 486.7L642.1 445.7L619.1 411Z" fill="#1d4e6b" stroke="#1d4e6b"></path><path d="M604.1 518.3L642.1 445.7L549.8 486.7Z" fill="#277297" stroke="#277297"></path><path d="M691.3 382L670.3 313.3L614.1 323.3Z" fill="#0c2435" stroke="#0c2435"></path><path d="M358.2 207L286.9 221L366.2 247.7Z" fill="#246688" stroke="#246688"></path><path d="M198.7 254.7L194.7 311.3L262.9 323.3Z" fill="#297ea6" stroke="#297ea6"></path><path d="M482.6 119.3L431.4 148.3L497.6 196Z" fill="#0c2435" stroke="#0c2435"></path><path d="M418.4 199L431.4 148.3L358.2 207Z" fill="#112e42" stroke="#112e42"></path><path d="M358.2 207L272.9 114.3L286.9 221Z" fill="#15384f" stroke="#15384f"></path><path d="M531.8 552.3L604.1 518.3L549.8 486.7Z" fill="#205a7a" stroke="#205a7a"></path><path d="M691.3 382L614.1 323.3L619.1 411Z" fill="#277297" stroke="#277297"></path><path d="M628.1 284.7L605.1 197L547.8 262.7Z" fill="#0c2435" stroke="#0c2435"></path><path d="M677.3 268.7L605.1 197L628.1 284.7Z" fill="#19435d" stroke="#19435d"></path><path d="M545.8 184L533.8 134.3L497.6 196Z" fill="#1d4e6b" stroke="#1d4e6b"></path><path d="M349.2 600L399.4 600L412.4 545.3Z" fill="#0c2435" stroke="#0c2435"></path><path d="M412.4 545.3L500.6 600L492.6 526.3Z" fill="#205a7a" stroke="#205a7a"></path><path d="M262.9 323.3L207.7 403L268.9 419Z" fill="#277297" stroke="#277297"></path><path d="M268.9 419L216.7 456.7L286.9 455.7Z" fill="#081a28" stroke="#081a28"></path><path d="M286.9 455.7L271.9 537.3L331.2 535.3Z" fill="#277297" stroke="#277297"></path><path d="M194.7 311.3L207.7 403L262.9 323.3Z" fill="#112e42" stroke="#112e42"></path><path d="M399.4 600L500.6 600L412.4 545.3Z" fill="#15384f" stroke="#15384f"></path><path d="M531.8 552.3L569.8 600L604.1 518.3Z" fill="#297ea6" stroke="#297ea6"></path><path d="M216.7 456.7L271.9 537.3L286.9 455.7Z" fill="#112e42" stroke="#112e42"></path><path d="M331.2 535.3L349.2 600L412.4 545.3Z" fill="#112e42" stroke="#112e42"></path><path d="M675.3 483.7L691.3 382L642.1 445.7Z" fill="#246688" stroke="#246688"></path><path d="M642.1 445.7L691.3 382L619.1 411Z" fill="#205a7a" stroke="#205a7a"></path><path d="M621.1 148.3L533.8 134.3L545.8 184Z" fill="#0c2435" stroke="#0c2435"></path><path d="M207.7 403L216.7 456.7L268.9 419Z" fill="#112e42" stroke="#112e42"></path><path d="M533.8 134.3L482.6 119.3L497.6 196Z" fill="#0c2435" stroke="#0c2435"></path><path d="M431.4 148.3L367.2 111.3L358.2 207Z" fill="#19435d" stroke="#19435d"></path><path d="M749.5 259.7L677.3 268.7L670.3 313.3Z" fill="#00101c" stroke="#00101c"></path><path d="M670.3 313.3L677.3 268.7L628.1 284.7Z" fill="#15384f" stroke="#15384f"></path><path d="M296.9 600L349.2 600L331.2 535.3Z" fill="#081a28" stroke="#081a28"></path><path d="M198.7 254.7L262.9 323.3L285.9 244.7Z" fill="#00101c" stroke="#00101c"></path><path d="M708.3 541.3L675.3 483.7L604.1 518.3Z" fill="#246688" stroke="#246688"></path><path d="M604.1 518.3L675.3 483.7L642.1 445.7Z" fill="#00101c" stroke="#00101c"></path><path d="M407.4 54.7L367.2 111.3L431.4 148.3Z" fill="#277297" stroke="#277297"></path><path d="M286.9 221L198.7 254.7L285.9 244.7Z" fill="#205a7a" stroke="#205a7a"></path><path d="M500.6 600L569.8 600L531.8 552.3Z" fill="#297ea6" stroke="#297ea6"></path><path d="M214.7 182L198.7 254.7L286.9 221Z" fill="#112e42" stroke="#112e42"></path><path d="M211.7 547.3L296.9 600L271.9 537.3Z" fill="#19435d" stroke="#19435d"></path><path d="M271.9 537.3L296.9 600L331.2 535.3Z" fill="#1d4e6b" stroke="#1d4e6b"></path><path d="M707.3 186L621.1 148.3L605.1 197Z" fill="#1d4e6b" stroke="#1d4e6b"></path><path d="M605.1 197L621.1 148.3L545.8 184Z" fill="#081a28" stroke="#081a28"></path><path d="M559.8 74.7L469.6 75.7L482.6 119.3Z" fill="#0c2435" stroke="#0c2435"></path><path d="M569.8 600L608.1 600L604.1 518.3Z" fill="#297ea6" stroke="#297ea6"></path><path d="M559.8 74.7L482.6 119.3L533.8 134.3Z" fill="#246688" stroke="#246688"></path><path d="M482.6 119.3L469.6 75.7L431.4 148.3Z" fill="#246688" stroke="#246688"></path><path d="M407.4 54.7L365.2 82.7L367.2 111.3Z" fill="#15384f" stroke="#15384f"></path><path d="M224.7 150.3L214.7 182L286.9 221Z" fill="#15384f" stroke="#15384f"></path><path d="M148.5 266.7L154.5 321.3L194.7 311.3Z" fill="#205a7a" stroke="#205a7a"></path><path d="M194.7 311.3L154.5 321.3L207.7 403Z" fill="#15384f" stroke="#15384f"></path><path d="M207.7 403L119.5 448.7L216.7 456.7Z" fill="#00101c" stroke="#00101c"></path><path d="M272.9 114.3L358.2 207L367.2 111.3Z" fill="#19435d" stroke="#19435d"></path><path d="M198.7 254.7L148.5 266.7L194.7 311.3Z" fill="#297ea6" stroke="#297ea6"></path><path d="M216.7 456.7L211.7 547.3L271.9 537.3Z" fill="#19435d" stroke="#19435d"></path><path d="M144.5 532.3L211.7 547.3L216.7 456.7Z" fill="#00101c" stroke="#00101c"></path><path d="M283.9 68.7L272.9 114.3L367.2 111.3Z" fill="#1d4e6b" stroke="#1d4e6b"></path><path d="M675.3 483.7L748.5 411L691.3 382Z" fill="#081a28" stroke="#081a28"></path><path d="M691.3 382L759.5 352.3L670.3 313.3Z" fill="#00101c" stroke="#00101c"></path><path d="M677.3 268.7L707.3 186L605.1 197Z" fill="#297ea6" stroke="#297ea6"></path><path d="M777.5 458.7L748.5 411L675.3 483.7Z" fill="#081a28" stroke="#081a28"></path><path d="M272.9 114.3L224.7 150.3L286.9 221Z" fill="#081a28" stroke="#081a28"></path><path d="M127.5 196L148.5 266.7L198.7 254.7Z" fill="#297ea6" stroke="#297ea6"></path><path d="M154.5 321.3L136.5 389L207.7 403Z" fill="#297ea6" stroke="#297ea6"></path><path d="M621.1 148.3L559.8 74.7L533.8 134.3Z" fill="#112e42" stroke="#112e42"></path><path d="M469.6 75.7L407.4 54.7L431.4 148.3Z" fill="#00101c" stroke="#00101c"></path><path d="M365.2 82.7L283.9 68.7L367.2 111.3Z" fill="#112e42" stroke="#112e42"></path><path d="M424.4 0L407.4 54.7L469.6 75.7Z" fill="#246688" stroke="#246688"></path><path d="M127.5 196L198.7 254.7L214.7 182Z" fill="#19435d" stroke="#19435d"></path><path d="M154.5 321.3L78.2 340.3L136.5 389Z" fill="#19435d" stroke="#19435d"></path><path d="M748.5 411L759.5 352.3L691.3 382Z" fill="#0c2435" stroke="#0c2435"></path><path d="M685.3 600L708.3 541.3L604.1 518.3Z" fill="#0c2435" stroke="#0c2435"></path><path d="M746.5 214L707.3 186L677.3 268.7Z" fill="#0c2435" stroke="#0c2435"></path><path d="M621.1 148.3L620.1 77.7L559.8 74.7Z" fill="#277297" stroke="#277297"></path><path d="M759.5 352.3L749.5 259.7L670.3 313.3Z" fill="#0c2435" stroke="#0c2435"></path><path d="M766.5 153.3L686.3 140.3L707.3 186Z" fill="#277297" stroke="#277297"></path><path d="M707.3 186L686.3 140.3L621.1 148.3Z" fill="#246688" stroke="#246688"></path><path d="M686.3 140.3L620.1 77.7L621.1 148.3Z" fill="#1d4e6b" stroke="#1d4e6b"></path><path d="M483.6 0L424.4 0L469.6 75.7Z" fill="#112e42" stroke="#112e42"></path><path d="M608.1 600L685.3 600L604.1 518.3Z" fill="#00101c" stroke="#00101c"></path><path d="M816.8 268.7L746.5 214L749.5 259.7Z" fill="#112e42" stroke="#112e42"></path><path d="M749.5 259.7L746.5 214L677.3 268.7Z" fill="#00101c" stroke="#00101c"></path><path d="M47.2 409L119.5 448.7L136.5 389Z" fill="#19435d" stroke="#19435d"></path><path d="M136.5 389L119.5 448.7L207.7 403Z" fill="#277297" stroke="#277297"></path><path d="M272.9 114.3L204.7 61.7L224.7 150.3Z" fill="#112e42" stroke="#112e42"></path><path d="M338.2 0L283.9 68.7L365.2 82.7Z" fill="#246688" stroke="#246688"></path><path d="M144.5 532.3L195.7 600L211.7 547.3Z" fill="#15384f" stroke="#15384f"></path><path d="M211.7 547.3L195.7 600L296.9 600Z" fill="#205a7a" stroke="#205a7a"></path><path d="M119.5 448.7L144.5 532.3L216.7 456.7Z" fill="#00101c" stroke="#00101c"></path><path d="M708.3 541.3L777.5 458.7L675.3 483.7Z" fill="#1d4e6b" stroke="#1d4e6b"></path><path d="M819.8 393L812.8 319.3L759.5 352.3Z" fill="#1d4e6b" stroke="#1d4e6b"></path><path d="M759.5 352.3L812.8 319.3L749.5 259.7Z" fill="#1d4e6b" stroke="#1d4e6b"></path><path d="M768.5 534.3L777.5 458.7L708.3 541.3Z" fill="#205a7a" stroke="#205a7a"></path><path d="M137.5 119.3L214.7 182L224.7 150.3Z" fill="#00101c" stroke="#00101c"></path><path d="M137.5 119.3L127.5 196L214.7 182Z" fill="#1d4e6b" stroke="#1d4e6b"></path><path d="M68.2 273.7L78.2 340.3L154.5 321.3Z" fill="#112e42" stroke="#112e42"></path><path d="M770.5 600L768.5 534.3L708.3 541.3Z" fill="#112e42" stroke="#112e42"></path><path d="M483.6 0L469.6 75.7L534.8 0Z" fill="#112e42" stroke="#112e42"></path><path d="M407.4 54.7L338.2 0L365.2 82.7Z" fill="#0c2435" stroke="#0c2435"></path><path d="M534.8 0L469.6 75.7L559.8 74.7Z" fill="#081a28" stroke="#081a28"></path><path d="M68.2 273.7L154.5 321.3L148.5 266.7Z" fill="#246688" stroke="#246688"></path><path d="M63.2 542.3L130.5 600L144.5 532.3Z" fill="#081a28" stroke="#081a28"></path><path d="M819.8 393L748.5 411L777.5 458.7Z" fill="#112e42" stroke="#112e42"></path><path d="M819.8 393L759.5 352.3L748.5 411Z" fill="#19435d" stroke="#19435d"></path><path d="M613.1 0L534.8 0L559.8 74.7Z" fill="#19435d" stroke="#19435d"></path><path d="M811.8 474.7L819.8 393L777.5 458.7Z" fill="#00101c" stroke="#00101c"></path><path d="M424.4 0L338.2 0L407.4 54.7Z" fill="#297ea6" stroke="#297ea6"></path><path d="M283.9 68.7L204.7 61.7L272.9 114.3Z" fill="#15384f" stroke="#15384f"></path><path d="M768.5 534.3L811.8 474.7L777.5 458.7Z" fill="#0c2435" stroke="#0c2435"></path><path d="M837.8 199L816.8 268.7L900 261.7Z" fill="#19435d" stroke="#19435d"></path><path d="M812.8 319.3L816.8 268.7L749.5 259.7Z" fill="#0c2435" stroke="#0c2435"></path><path d="M746.5 214L766.5 153.3L707.3 186Z" fill="#0c2435" stroke="#0c2435"></path><path d="M709.3 53.7L613.1 0L620.1 77.7Z" fill="#19435d" stroke="#19435d"></path><path d="M620.1 77.7L613.1 0L559.8 74.7Z" fill="#0c2435" stroke="#0c2435"></path><path d="M837.8 199L766.5 153.3L746.5 214Z" fill="#1d4e6b" stroke="#1d4e6b"></path><path d="M281.9 0L204.7 61.7L283.9 68.7Z" fill="#00101c" stroke="#00101c"></path><path d="M127.5 196L68.2 273.7L148.5 266.7Z" fill="#1d4e6b" stroke="#1d4e6b"></path><path d="M50.2 200L68.2 273.7L127.5 196Z" fill="#1d4e6b" stroke="#1d4e6b"></path><path d="M50.2 474.7L144.5 532.3L119.5 448.7Z" fill="#205a7a" stroke="#205a7a"></path><path d="M144.5 532.3L130.5 600L195.7 600Z" fill="#1d4e6b" stroke="#1d4e6b"></path><path d="M204.7 61.7L137.5 119.3L224.7 150.3Z" fill="#15384f" stroke="#15384f"></path><path d="M338.2 0L281.9 0L283.9 68.7Z" fill="#15384f" stroke="#15384f"></path><path d="M0 324.3L47.2 409L78.2 340.3Z" fill="#15384f" stroke="#15384f"></path><path d="M78.2 340.3L47.2 409L136.5 389Z" fill="#15384f" stroke="#15384f"></path><path d="M709.3 53.7L620.1 77.7L686.3 140.3Z" fill="#00101c" stroke="#00101c"></path><path d="M685.3 600L770.5 600L708.3 541.3Z" fill="#0c2435" stroke="#0c2435"></path><path d="M768.5 534.3L814.8 524.3L811.8 474.7Z" fill="#246688" stroke="#246688"></path><path d="M900 412L900 342.3L819.8 393Z" fill="#1d4e6b" stroke="#1d4e6b"></path><path d="M812.8 600L814.8 524.3L768.5 534.3Z" fill="#00101c" stroke="#00101c"></path><path d="M759.5 63.7L709.3 53.7L686.3 140.3Z" fill="#19435d" stroke="#19435d"></path><path d="M47.2 409L50.2 474.7L119.5 448.7Z" fill="#297ea6" stroke="#297ea6"></path><path d="M50.2 474.7L63.2 542.3L144.5 532.3Z" fill="#081a28" stroke="#081a28"></path><path d="M900 261.7L816.8 268.7L812.8 319.3Z" fill="#297ea6" stroke="#297ea6"></path><path d="M816.8 268.7L837.8 199L746.5 214Z" fill="#246688" stroke="#246688"></path><path d="M766.5 153.3L759.5 63.7L686.3 140.3Z" fill="#081a28" stroke="#081a28"></path><path d="M900 342.3L812.8 319.3L819.8 393Z" fill="#246688" stroke="#246688"></path><path d="M48.2 112.3L50.2 200L127.5 196Z" fill="#246688" stroke="#246688"></path><path d="M68.2 273.7L0 324.3L78.2 340.3Z" fill="#00101c" stroke="#00101c"></path><path d="M837.8 199L814.8 135.3L766.5 153.3Z" fill="#277297" stroke="#277297"></path><path d="M814.8 135.3L759.5 63.7L766.5 153.3Z" fill="#15384f" stroke="#15384f"></path><path d="M709.3 53.7L703.3 0L613.1 0Z" fill="#1d4e6b" stroke="#1d4e6b"></path><path d="M770.5 600L812.8 600L768.5 534.3Z" fill="#297ea6" stroke="#297ea6"></path><path d="M900 412L819.8 393L900 457.7Z" fill="#15384f" stroke="#15384f"></path><path d="M204.7 61.7L123.5 50.7L137.5 119.3Z" fill="#277297" stroke="#277297"></path><path d="M137.5 119.3L48.2 112.3L127.5 196Z" fill="#1d4e6b" stroke="#1d4e6b"></path><path d="M281.9 0L195.7 0L204.7 61.7Z" fill="#1d4e6b" stroke="#1d4e6b"></path><path d="M63.2 542.3L67.2 600L130.5 600Z" fill="#19435d" stroke="#19435d"></path><path d="M0 600L67.2 600L63.2 542.3Z" fill="#205a7a" stroke="#205a7a"></path><path d="M742.5 0L703.3 0L709.3 53.7Z" fill="#00101c" stroke="#00101c"></path><path d="M0 260.7L0 324.3L68.2 273.7Z" fill="#0c2435" stroke="#0c2435"></path><path d="M47.2 409L0 466.7L50.2 474.7Z" fill="#112e42" stroke="#112e42"></path><path d="M50.2 474.7L0 523.3L63.2 542.3Z" fill="#246688" stroke="#246688"></path><path d="M0 324.3L0 418L47.2 409Z" fill="#112e42" stroke="#112e42"></path><path d="M154.5 0L123.5 50.7L204.7 61.7Z" fill="#246688" stroke="#246688"></path><path d="M819.8 393L811.8 474.7L900 457.7Z" fill="#277297" stroke="#277297"></path><path d="M900 131.3L822.8 69.7L814.8 135.3Z" fill="#297ea6" stroke="#297ea6"></path><path d="M900 457.7L811.8 474.7L814.8 524.3Z" fill="#246688" stroke="#246688"></path><path d="M0 418L0 466.7L47.2 409Z" fill="#112e42" stroke="#112e42"></path><path d="M50.2 200L0 260.7L68.2 273.7Z" fill="#1d4e6b" stroke="#1d4e6b"></path><path d="M0 181L0 260.7L50.2 200Z" fill="#297ea6" stroke="#297ea6"></path><path d="M900 553.3L900 457.7L814.8 524.3Z" fill="#277297" stroke="#277297"></path><path d="M900 342.3L900 261.7L812.8 319.3Z" fill="#246688" stroke="#246688"></path><path d="M195.7 0L154.5 0L204.7 61.7Z" fill="#1d4e6b" stroke="#1d4e6b"></path><path d="M78.2 0L80.2 71.7L123.5 50.7Z" fill="#205a7a" stroke="#205a7a"></path><path d="M123.5 50.7L80.2 71.7L137.5 119.3Z" fill="#081a28" stroke="#081a28"></path><path d="M842.8 0L742.5 0L759.5 63.7Z" fill="#1d4e6b" stroke="#1d4e6b"></path><path d="M759.5 63.7L742.5 0L709.3 53.7Z" fill="#297ea6" stroke="#297ea6"></path><path d="M822.8 69.7L759.5 63.7L814.8 135.3Z" fill="#19435d" stroke="#19435d"></path><path d="M80.2 71.7L48.2 112.3L137.5 119.3Z" fill="#1d4e6b" stroke="#1d4e6b"></path><path d="M0 466.7L0 523.3L50.2 474.7Z" fill="#205a7a" stroke="#205a7a"></path><path d="M900 131.3L814.8 135.3L837.8 199Z" fill="#246688" stroke="#246688"></path><path d="M900 261.7L900 212L837.8 199Z" fill="#19435d" stroke="#19435d"></path><path d="M0 149.3L0 181L50.2 200Z" fill="#0c2435" stroke="#0c2435"></path><path d="M812.8 600L900 553.3L814.8 524.3Z" fill="#277297" stroke="#277297"></path><path d="M48.2 112.3L0 149.3L50.2 200Z" fill="#0c2435" stroke="#0c2435"></path><path d="M0 73.7L0 149.3L48.2 112.3Z" fill="#297ea6" stroke="#297ea6"></path><path d="M0 523.3L0 600L63.2 542.3Z" fill="#1d4e6b" stroke="#1d4e6b"></path><path d="M900 212L900 131.3L837.8 199Z" fill="#277297" stroke="#277297"></path><path d="M822.8 69.7L842.8 0L759.5 63.7Z" fill="#1d4e6b" stroke="#1d4e6b"></path><path d="M812.8 600L900 600L900 553.3Z" fill="#19435d" stroke="#19435d"></path><path d="M154.5 0L78.2 0L123.5 50.7Z" fill="#19435d" stroke="#19435d"></path><path d="M80.2 71.7L0 73.7L48.2 112.3Z" fill="#112e42" stroke="#112e42"></path><path d="M78.2 0L0 73.7L80.2 71.7Z" fill="#297ea6" stroke="#297ea6"></path><path d="M900 64.7L842.8 0L822.8 69.7Z" fill="#1d4e6b" stroke="#1d4e6b"></path><path d="M900 131.3L900 64.7L822.8 69.7Z" fill="#081a28" stroke="#081a28"></path><path d="M78.2 0L0 0L0 73.7Z" fill="#19435d" stroke="#19435d"></path><path d="M900 64.7L900 0L842.8 0Z" fill="#0c2435" stroke="#0c2435"></path></g></svg>